<?xml version="1.0" encoding="UTF-8" standalone="no"?>
<!-- Created with Inkscape (http://www.inkscape.org/) -->

<svg
   xmlns:dc="http://purl.org/dc/elements/1.1/"
   xmlns:cc="http://creativecommons.org/ns#"
   xmlns:rdf="http://www.w3.org/1999/02/22-rdf-syntax-ns#"
   xmlns:svg="http://www.w3.org/2000/svg"
   xmlns="http://www.w3.org/2000/svg"
   xmlns:sodipodi="http://sodipodi.sourceforge.net/DTD/sodipodi-0.dtd"
   xmlns:inkscape="http://www.inkscape.org/namespaces/inkscape"
   sodipodi:docname="masse_graphic.svg"
   inkscape:version="0.48.4 r9939"
   version="1.1"
   id="svg2"
   height="297mm"
   width="210mm"
   inkscape:export-filename="/home/hilid/Downloads/cr-projet-dispersion/masse_graphic.png"
   inkscape:export-xdpi="90"
   inkscape:export-ydpi="90">
  <sodipodi:namedview
     id="base"
     pagecolor="#ffffff"
     bordercolor="#666666"
     borderopacity="1.0"
     inkscape:pageopacity="0.0"
     inkscape:pageshadow="2"
     inkscape:zoom="1.8101934"
     inkscape:cx="369.81185"
     inkscape:cy="109.27771"
     inkscape:document-units="px"
     inkscape:current-layer="layer1"
     showgrid="false"
     showguides="true"
     inkscape:guide-bbox="true"
     inkscape:window-width="1366"
     inkscape:window-height="719"
     inkscape:window-x="0"
     inkscape:window-y="0"
     inkscape:window-maximized="1"
     inkscape:snap-global="false">
    <sodipodi:guide
       id="guide4215"
       position="601.42857,125"
       orientation="1,0" />
  </sodipodi:namedview>
  <defs
     id="defs4">
    <marker
       style="overflow:visible;"
       id="Arrow1Lend"
       refX="0.0"
       refY="0.0"
       orient="auto"
       inkscape:stockid="Arrow1Lend">
      <path
         transform="scale(0.8) rotate(180) translate(12.5,0)"
         style="fill-rule:evenodd;stroke:#000000;stroke-width:1.0pt;"
         d="M 0.0,0.0 L 5.0,-5.0 L -12.5,0.0 L 5.0,5.0 L 0.0,0.0 z "
         id="path3764" />
    </marker>
  </defs>
  <metadata
     id="metadata7">
    <rdf:RDF>
      <cc:Work
         rdf:about="">
        <dc:format>image/svg+xml</dc:format>
        <dc:type
           rdf:resource="http://purl.org/dc/dcmitype/StillImage" />
        <dc:title></dc:title>
      </cc:Work>
    </rdf:RDF>
  </metadata>
  <g
     id="layer1"
     inkscape:groupmode="layer"
     inkscape:label="Calque 1">
    <path
       inkscape:connector-curvature="0"
       id="path2987"
       d="M 67.142857,986.6479 330,986.6479"
       style="fill:none;stroke:#000000;stroke-width:1px;stroke-linecap:butt;stroke-linejoin:miter;stroke-opacity:1;marker-end:url(#Arrow1Lend)" />
    <rect
       y="902.36218"
       x="149.28572"
       height="49.285709"
       width="55.714287"
       id="rect4209"
       style="stroke:#d00000;stroke-width:1;stroke-miterlimit:4;stroke-opacity:1;stroke-dasharray:none;stroke-dashoffset:0;fill:#f2f2f2" />
    <path
       inkscape:connector-curvature="0"
       id="path4211"
       d="m 75.714286,927.36218 72.857144,0"
       style="fill:none;stroke:#000000;stroke-width:1;stroke-linecap:butt;stroke-linejoin:miter;stroke-opacity:1;stroke-miterlimit:4;stroke-dasharray:1,1;stroke-dashoffset:0" />
    <path
       inkscape:connector-curvature="0"
       id="path4213"
       d="m 205.71429,927.36218 69.28571,0"
       style="fill:none;stroke:#000000;stroke-width:1;stroke-linecap:butt;stroke-linejoin:miter;stroke-opacity:1;stroke-miterlimit:4;stroke-dasharray:1,1;stroke-dashoffset:0" />
    <path
       inkscape:connector-curvature="0"
       id="path4217"
       d="m 177.85714,951.64789 0,35.00001"
       style="fill:none;stroke:#000000;stroke-width:1;stroke-linecap:butt;stroke-linejoin:miter;stroke-opacity:1;stroke-miterlimit:4;stroke-dasharray:1,6;stroke-dashoffset:0" />
    <text
       sodipodi:linespacing="125%"
       id="text4219"
       y="995.93359"
       x="174.28571"
       style="font-size:12px;font-style:normal;font-variant:normal;font-weight:normal;font-stretch:normal;line-height:125%;letter-spacing:0px;word-spacing:0px;fill:#000000;fill-opacity:1;stroke:none;font-family:Arial;-inkscape-font-specification:Arial"
       xml:space="preserve"><tspan
         y="995.93359"
         x="174.28571"
         id="tspan4221"
         sodipodi:role="line" /></text>
    <text
       sodipodi:linespacing="125%"
       id="text6975"
       y="1025.2194"
       x="81.428574"
       style="font-size:12px;font-style:normal;font-variant:normal;font-weight:normal;font-stretch:normal;line-height:125%;letter-spacing:0px;word-spacing:0px;fill:#000000;fill-opacity:1;stroke:none;font-family:Arial;-inkscape-font-specification:Arial"
       xml:space="preserve"><tspan
         y="1025.2194"
         x="81.428574"
         id="tspan6977"
         sodipodi:role="line" /></text>
    <text
       xml:space="preserve"
       style="font-size:12px;font-style:normal;font-variant:normal;font-weight:normal;font-stretch:normal;line-height:125%;letter-spacing:0px;word-spacing:0px;fill:#000000;fill-opacity:1;stroke:none;font-family:Arial;-inkscape-font-specification:Arial"
       x="171.42857"
       y="791.64789"
       id="text7416"
       sodipodi:linespacing="125%"><tspan
         sodipodi:role="line"
         id="tspan7418" /></text>
    <g
       transform="matrix(0.35911619,0,0,0.35911619,163.61371,780.12992)"
       id="g3662">
      <g
         style="font-style:normal;font-variant:normal;font-weight:normal;font-stretch:normal;letter-spacing:normal;word-spacing:normal;text-anchor:start;fill:none;stroke:#000000;stroke-linecap:butt;stroke-linejoin:miter;stroke-miterlimit:10.43299961;stroke-opacity:1;stroke-dasharray:none;stroke-dashoffset:0"
         word-spacing="normal"
         letter-spacing="normal"
         font-size-adjust="none"
         font-stretch="normal"
         font-weight="normal"
         font-variant="normal"
         font-style="normal"
         stroke-miterlimit="10.433"
         xml:space="preserve"
         transform="matrix(1.0629921,0,0,-1.0629921,-186.02362,789.27165)"
         id="content"><path
           style="fill:#000000;stroke-width:0"
           inkscape:connector-curvature="0"
           id="path3665"
           d="m 476.8,436.43 0.02,0.07 0.01,0.06 0.03,0.12 0.03,0.12 0.03,0.11 0.03,0.11 0.03,0.09 0.03,0.1 0.03,0.09 0.03,0.08 0.03,0.08 0.03,0.07 0.03,0.07 0.03,0.06 0.03,0.06 0.03,0.06 0.03,0.05 0.03,0.05 0.03,0.04 0.04,0.04 0.03,0.04 0.04,0.04 0.03,0.03 0.04,0.03 0.04,0.03 0.04,0.02 0.05,0.03 0.04,0.02 0.05,0.02 0.04,0.01 0.05,0.02 0.06,0.01 0.05,0.02 c 0.45,0.11 2.1,0.11 3.14,0.11 5.03,0 7.27,-0.21 7.27,-4.1 0,-0.73 -0.19,-2.68 -0.39,-3.98 -0.05,-0.19 -0.16,-0.8 -0.16,-0.94 0,-0.3 0.16,-0.66 0.59,-0.66 0.57,0 0.66,0.41 0.75,1.16 l 1.35,8.66 c 0.06,0.2 0.11,0.7 0.11,0.86 0,0.54 -0.5,0.54 -1.35,0.54 H 461.6 c -1.21,0 -1.25,-0.06 -1.6,-1 l -2.98,-8.76 c -0.06,-0.11 -0.3,-0.8 -0.3,-0.91 0,-0.3 0.24,-0.55 0.6,-0.55 0.5,0 0.54,0.25 0.84,1.05 2.69,7.72 3.98,8.63 11.36,8.63 h 1.94 c 1.4,0 1.4,-0.21 1.4,-0.6 0,-0.31 -0.15,-0.9 -0.2,-1.04 l -6.67,-26.61 c -0.45,-1.85 -0.61,-2.39 -5.94,-2.39 -1.8,0 -2.09,0 -2.09,-0.96 0,-0.59 0.54,-0.59 0.84,-0.59 1.36,0 2.75,0.09 4.09,0.09 1.4,0 2.85,0.07 4.24,0.07 1.39,0 2.78,-0.07 4.14,-0.07 1.44,0 2.94,-0.09 4.33,-0.09 0.5,0 1.09,0 1.09,1 0,0.55 -0.39,0.55 -1.69,0.55 -1.25,0 -1.89,0 -3.18,0.09 -1.46,0.16 -1.85,0.3 -1.85,1.09 0,0.07 0,0.32 0.19,1.05 z" /><path
           style="fill:#000000;stroke-width:0"
           inkscape:connector-curvature="0"
           id="path3667"
           d="m 507.78,432.07 h 10.66 c 0.45,0 1.28,0 1.28,0.85 0,0.86 -0.8,0.86 -1.28,0.86 h -10.66 v 10.7 c 0,0.45 0,1.28 -0.84,1.28 -0.88,0 -0.88,-0.8 -0.88,-1.28 v -10.7 h -10.68 c -0.46,0 -1.3,0 -1.3,-0.83 0,-0.88 0.8,-0.88 1.3,-0.88 h 10.68 v -10.7 c 0,-0.45 0,-1.28 0.85,-1.28 0.87,0 0.87,0.8 0.87,1.28 z" /><path
           style="fill:#000000;stroke-width:0"
           inkscape:connector-curvature="0"
           id="path3669"
           d="m 493.35,397.53 -0.03,-0.11 -0.04,-0.12 -0.05,-0.12 -0.04,-0.12 -0.06,-0.13 -0.06,-0.12 -0.06,-0.13 -0.07,-0.13 -0.07,-0.12 -0.07,-0.13 -0.08,-0.13 -0.09,-0.13 -0.09,-0.12 -0.09,-0.13 -0.1,-0.12 -0.1,-0.11 -0.1,-0.12 -0.11,-0.11 -0.12,-0.1 -0.12,-0.11 -0.12,-0.09 -0.12,-0.09 -0.13,-0.08 -0.14,-0.08 -0.13,-0.07 -0.15,-0.06 -0.14,-0.06 -0.15,-0.04 -0.15,-0.04 -0.16,-0.02 -0.16,-0.02 -0.16,-0.01 c -0.11,0 -1.16,0 -1.89,0.49 1.43,0.45 1.53,1.72 1.53,1.92 0,0.77 -0.6,1.3 -1.39,1.3 -0.97,0 -1.99,-0.85 -1.99,-2.14 0,-1.74 1.95,-2.53 3.66,-2.53 1.61,0 3.03,1 3.9,2.46 0.83,-1.84 2.75,-2.46 4.14,-2.46 4.02,0 6.15,4.34 6.15,5.32 0,0.46 -0.46,0.46 -0.57,0.46 -0.48,0 -0.51,-0.17 -0.65,-0.6 -0.74,-2.4 -2.83,-4.22 -4.78,-4.22 -1.4,0 -2.13,0.94 -2.13,2.27 0,0.91 0.84,4.08 1.81,7.95 0.71,2.68 2.27,3.55 3.42,3.55 0.07,0 1.15,0 1.88,-0.48 -1.11,-0.32 -1.53,-1.3 -1.53,-1.93 0,-0.76 0.59,-1.28 1.39,-1.28 0.81,0 1.95,0.66 1.95,2.13 0,1.95 -2.23,2.53 -3.62,2.53 -1.74,0 -3.14,-1.14 -3.91,-2.47 -0.62,1.44 -2.22,2.47 -4.17,2.47 -3.91,0 -6.14,-4.28 -6.14,-5.33 0,-0.45 0.5,-0.45 0.59,-0.45 0.46,0 0.49,0.14 0.67,0.59 0.86,2.72 3.07,4.22 4.77,4.22 1.16,0 2.09,-0.62 2.09,-2.3 0,-0.7 -0.42,-2.43 -0.73,-3.62 z" /><path
           style="fill:#000000;stroke-width:0"
           inkscape:connector-curvature="0"
           id="path3671"
           d="m 522.21,396.89 0,0.18 0,0.21 -0.01,0.24 -0.01,0.26 -0.01,0.28 -0.02,0.29 -0.02,0.32 -0.03,0.33 -0.05,0.34 -0.05,0.35 -0.07,0.36 -0.08,0.36 -0.09,0.37 -0.11,0.37 -0.12,0.36 -0.15,0.37 -0.16,0.36 -0.18,0.35 -0.2,0.34 -0.23,0.33 -0.25,0.32 -0.28,0.3 -0.14,0.14 -0.16,0.14 -0.16,0.13 -0.17,0.13 -0.17,0.12 -0.18,0.12 -0.19,0.11 -0.2,0.1 -0.2,0.1 -0.22,0.09 -0.22,0.08 -0.23,0.08 -0.23,0.07 -0.25,0.06 -0.26,0.05 -0.26,0.04 -0.27,0.03 -0.28,0.03 -0.29,0.01 -0.3,0.01 v -0.83 c 1.84,0 3.17,-0.94 3.65,-2.69 0.36,-1.27 0.36,-3.34 0.36,-4.81 0,-1.69 0,-3.71 -0.37,-5.21 -0.66,-2.42 -2.64,-2.78 -3.64,-2.78 h 0 c -0.93,0 -3.02,0.32 -3.64,2.83 -0.35,1.35 -0.38,3.13 -0.38,5.16 0,1.84 0,3.56 0.41,4.98 0.62,2.1 2.55,2.52 3.61,2.52 v 0.83 c -6.5,0 -6.5,-6.83 -6.5,-8.63 0,-1.81 0,-8.51 6.5,-8.51 6.5,0 6.5,6.7 6.5,8.51 z" /></g>    </g>
    <g
       transform="matrix(0.39060819,0,0,0.39060819,153.57843,817.72582)"
       id="g3751">
      <g
         style="font-style:normal;font-variant:normal;font-weight:normal;font-stretch:normal;letter-spacing:normal;word-spacing:normal;text-anchor:start;fill:none;stroke:#000000;stroke-linecap:butt;stroke-linejoin:miter;stroke-miterlimit:10.43299961;stroke-opacity:1;stroke-dasharray:none;stroke-dashoffset:0"
         id="g3753"
         transform="matrix(1.0629921,0,0,-1.0629921,-186.02362,789.27165)"
         xml:space="preserve"
         stroke-miterlimit="10.433"
         font-style="normal"
         font-variant="normal"
         font-weight="normal"
         font-stretch="normal"
         font-size-adjust="none"
         letter-spacing="normal"
         word-spacing="normal"><path
           style="fill:#000000;stroke-width:0"
           inkscape:connector-curvature="0"
           d="m 478.83,424.73 0,0.12 0,0.13 -0.01,0.12 0,0.11 -0.01,0.12 -0.01,0.11 -0.01,0.11 -0.02,0.1 -0.03,0.21 -0.03,0.19 -0.05,0.18 -0.04,0.18 -0.06,0.16 -0.06,0.16 -0.06,0.15 -0.07,0.13 -0.07,0.13 -0.07,0.12 -0.08,0.12 -0.08,0.1 -0.08,0.1 -0.09,0.09 -0.08,0.08 -0.09,0.07 -0.09,0.07 -0.09,0.06 -0.1,0.05 -0.09,0.05 -0.09,0.04 -0.09,0.03 -0.09,0.03 -0.1,0.03 -0.09,0.01 -0.08,0.02 -0.09,0 -0.09,0 c -1.25,0 -2.43,-1.29 -2.43,-2.39 0,-0.64 0.25,-0.93 0.79,-1.48 1.05,-1 1.69,-2.3 1.69,-4.09 0,-2.1 -3.03,-13.5 -8.86,-13.5 -2.54,0 -3.69,1.75 -3.69,4.32 0,2.8 1.35,6.44 2.9,10.57 0.34,0.86 0.59,1.54 0.59,2.5 0,2.23 -1.59,4.07 -4.09,4.07 -4.68,0 -6.58,-7.21 -6.58,-7.67 0,-0.5 0.5,-0.5 0.61,-0.5 0.5,0 0.54,0.11 0.79,0.91 1.44,5.03 3.58,6.17 5.03,6.17 0.4,0 1.25,0 1.25,-1.59 0,-1.25 -0.5,-2.6 -0.85,-3.49 -2.19,-5.78 -2.83,-8.08 -2.83,-10.22 0,-5.37 4.37,-6.17 6.67,-6.17 8.37,0 11.2,16.49 11.2,19.08 z"
           id="path3755" /><path
           style="fill:#000000;stroke-width:0"
           inkscape:connector-curvature="0"
           d="m 497.58,432.07 h 10.66 c 0.45,0 1.28,0 1.28,0.85 0,0.86 -0.8,0.86 -1.28,0.86 h -10.66 v 10.7 c 0,0.45 0,1.28 -0.84,1.28 -0.88,0 -0.88,-0.8 -0.88,-1.28 v -10.7 h -10.68 c -0.46,0 -1.3,0 -1.3,-0.83 0,-0.88 0.8,-0.88 1.3,-0.88 h 10.68 v -10.7 c 0,-0.45 0,-1.28 0.85,-1.28 0.87,0 0.87,0.8 0.87,1.28 z"
           id="path3757" /><path
           style="fill:#000000;stroke-width:0"
           inkscape:connector-curvature="0"
           d="m 488.31,397.53 -0.03,-0.11 -0.04,-0.12 -0.05,-0.12 -0.04,-0.12 -0.06,-0.13 -0.05,-0.12 -0.07,-0.13 -0.06,-0.13 -0.08,-0.12 -0.07,-0.13 -0.08,-0.13 -0.09,-0.13 -0.08,-0.12 -0.1,-0.13 -0.1,-0.12 -0.1,-0.11 -0.1,-0.12 -0.11,-0.11 -0.12,-0.1 -0.11,-0.11 -0.13,-0.09 -0.12,-0.09 -0.13,-0.08 -0.14,-0.08 -0.13,-0.07 -0.15,-0.06 -0.14,-0.06 -0.15,-0.04 -0.15,-0.04 -0.16,-0.02 -0.16,-0.02 -0.16,-0.01 c -0.11,0 -1.16,0 -1.89,0.49 1.43,0.45 1.53,1.72 1.53,1.92 0,0.77 -0.6,1.3 -1.39,1.3 -0.97,0 -1.99,-0.85 -1.99,-2.14 0,-1.74 1.96,-2.53 3.66,-2.53 1.61,0 3.03,1 3.91,2.46 0.82,-1.84 2.74,-2.46 4.14,-2.46 4.01,0 6.14,4.34 6.14,5.32 0,0.46 -0.46,0.46 -0.57,0.46 -0.48,0 -0.51,-0.17 -0.65,-0.6 -0.74,-2.4 -2.83,-4.22 -4.78,-4.22 -1.39,0 -2.13,0.94 -2.13,2.27 0,0.91 0.85,4.08 1.81,7.95 0.71,2.68 2.27,3.55 3.43,3.55 0.06,0 1.14,0 1.87,-0.48 -1.11,-0.32 -1.53,-1.3 -1.53,-1.93 0,-0.76 0.59,-1.28 1.39,-1.28 0.81,0 1.95,0.66 1.95,2.13 0,1.95 -2.23,2.53 -3.62,2.53 -1.74,0 -3.14,-1.14 -3.91,-2.47 -0.62,1.44 -2.22,2.47 -4.17,2.47 -3.91,0 -6.14,-4.28 -6.14,-5.33 0,-0.45 0.5,-0.45 0.59,-0.45 0.46,0 0.49,0.14 0.68,0.59 0.85,2.72 3.06,4.22 4.76,4.22 1.16,0 2.09,-0.62 2.09,-2.3 0,-0.7 -0.42,-2.43 -0.73,-3.62 z"
           id="path3759" /><path
           style="fill:#000000;stroke-width:0"
           inkscape:connector-curvature="0"
           d="m 517.17,396.89 0,0.18 0,0.21 -0.01,0.24 0,0.26 -0.02,0.28 -0.01,0.29 -0.03,0.32 -0.03,0.33 -0.05,0.34 -0.05,0.35 -0.07,0.36 -0.07,0.36 -0.1,0.37 -0.11,0.37 -0.12,0.36 -0.14,0.37 -0.17,0.36 -0.18,0.35 -0.2,0.34 -0.23,0.33 -0.25,0.32 -0.27,0.3 -0.15,0.14 -0.16,0.14 -0.16,0.13 -0.16,0.13 -0.18,0.12 -0.18,0.12 -0.19,0.11 -0.2,0.1 -0.2,0.1 -0.22,0.09 -0.22,0.08 -0.23,0.08 -0.23,0.07 -0.25,0.06 -0.25,0.05 -0.27,0.04 -0.27,0.03 -0.28,0.03 -0.29,0.01 -0.3,0.01 v -0.83 c 1.84,0 3.17,-0.94 3.65,-2.69 0.36,-1.27 0.36,-3.34 0.36,-4.81 0,-1.69 0,-3.71 -0.37,-5.21 -0.66,-2.42 -2.64,-2.78 -3.64,-2.78 h 0 c -0.92,0 -3.02,0.32 -3.64,2.83 -0.35,1.35 -0.38,3.13 -0.38,5.16 0,1.84 0,3.56 0.41,4.98 0.62,2.1 2.55,2.52 3.61,2.52 v 0.83 c -6.5,0 -6.5,-6.83 -6.5,-8.63 0,-1.81 0,-8.51 6.5,-8.51 6.5,0 6.5,6.7 6.5,8.51 z"
           id="path3761" /></g>    </g>
    <g
       transform="matrix(0.39060819,0,0,0.39060819,-56.313884,818.04526)"
       id="g3853">
      <g
         style="font-style:normal;font-variant:normal;font-weight:normal;font-stretch:normal;letter-spacing:normal;word-spacing:normal;text-anchor:start;fill:none;stroke:#000000;stroke-linecap:butt;stroke-linejoin:miter;stroke-miterlimit:10.43299961;stroke-opacity:1;stroke-dasharray:none;stroke-dashoffset:0"
         word-spacing="normal"
         letter-spacing="normal"
         font-size-adjust="none"
         font-stretch="normal"
         font-weight="normal"
         font-variant="normal"
         font-style="normal"
         stroke-miterlimit="10.433"
         xml:space="preserve"
         transform="matrix(1.0629921,0,0,-1.0629921,-186.02362,789.27165)"
         id="g3855"><path
           style="fill:#000000;stroke-width:0"
           inkscape:connector-curvature="0"
           id="path3857"
           d="m 478.83,424.73 0,0.12 0,0.13 -0.01,0.12 0,0.11 -0.01,0.12 -0.01,0.11 -0.01,0.11 -0.02,0.1 -0.03,0.21 -0.03,0.19 -0.05,0.18 -0.04,0.18 -0.06,0.16 -0.06,0.16 -0.06,0.15 -0.07,0.13 -0.07,0.13 -0.07,0.12 -0.08,0.12 -0.08,0.1 -0.08,0.1 -0.09,0.09 -0.08,0.08 -0.09,0.07 -0.09,0.07 -0.09,0.06 -0.1,0.05 -0.09,0.05 -0.09,0.04 -0.09,0.03 -0.09,0.03 -0.1,0.03 -0.09,0.01 -0.08,0.02 -0.09,0 -0.09,0 c -1.25,0 -2.43,-1.29 -2.43,-2.39 0,-0.64 0.25,-0.93 0.79,-1.48 1.05,-1 1.69,-2.3 1.69,-4.09 0,-2.1 -3.03,-13.5 -8.86,-13.5 -2.54,0 -3.69,1.75 -3.69,4.32 0,2.8 1.35,6.44 2.9,10.57 0.34,0.86 0.59,1.54 0.59,2.5 0,2.23 -1.59,4.07 -4.09,4.07 -4.68,0 -6.58,-7.21 -6.58,-7.67 0,-0.5 0.5,-0.5 0.61,-0.5 0.5,0 0.54,0.11 0.79,0.91 1.44,5.03 3.58,6.17 5.03,6.17 0.4,0 1.25,0 1.25,-1.59 0,-1.25 -0.5,-2.6 -0.85,-3.49 -2.19,-5.78 -2.83,-8.08 -2.83,-10.22 0,-5.37 4.37,-6.17 6.67,-6.17 8.37,0 11.2,16.49 11.2,19.08 z" /><path
           style="fill:#000000;stroke-width:0"
           inkscape:connector-curvature="0"
           id="path3859"
           d="m 507.36,432.07 0.06,0 0.05,0 0.11,0.01 0.12,0 0.06,0 0.06,0.01 0.06,0 0.06,0.01 0.05,0.01 0.06,0.01 0.06,0.01 0.05,0.01 0.06,0.02 0.05,0.02 0.05,0.02 0.05,0.02 0.05,0.03 0.04,0.03 0.04,0.03 0.04,0.04 0.04,0.04 0.02,0.02 0.02,0.02 0.01,0.02 0.02,0.03 0.01,0.02 0.01,0.03 0.02,0.02 0.01,0.03 0.01,0.03 0.01,0.03 0.01,0.03 0,0.03 0.01,0.04 0,0.03 0.01,0.03 0,0.04 0,0.04 0,0.04 c 0,0.86 -0.79,0.86 -1.39,0.86 H 486.6 c -0.56,0 -1.39,0 -1.39,-0.83 0,-0.88 0.79,-0.88 1.39,-0.88 z" /><path
           style="fill:#000000;stroke-width:0"
           inkscape:connector-curvature="0"
           id="path3861"
           d="m 488.31,397.53 -0.03,-0.11 -0.04,-0.12 -0.05,-0.12 -0.04,-0.12 -0.06,-0.13 -0.05,-0.12 -0.07,-0.13 -0.06,-0.13 -0.08,-0.12 -0.07,-0.13 -0.08,-0.13 -0.09,-0.13 -0.08,-0.12 -0.1,-0.13 -0.1,-0.12 -0.1,-0.11 -0.1,-0.12 -0.11,-0.11 -0.12,-0.1 -0.11,-0.11 -0.13,-0.09 -0.12,-0.09 -0.13,-0.08 -0.14,-0.08 -0.13,-0.07 -0.15,-0.06 -0.14,-0.06 -0.15,-0.04 -0.15,-0.04 -0.16,-0.02 -0.16,-0.02 -0.16,-0.01 c -0.11,0 -1.16,0 -1.89,0.49 1.43,0.45 1.53,1.72 1.53,1.92 0,0.77 -0.6,1.3 -1.39,1.3 -0.97,0 -1.99,-0.85 -1.99,-2.14 0,-1.74 1.96,-2.53 3.66,-2.53 1.61,0 3.03,1 3.91,2.46 0.82,-1.84 2.74,-2.46 4.14,-2.46 4.01,0 6.14,4.34 6.14,5.32 0,0.46 -0.46,0.46 -0.57,0.46 -0.48,0 -0.51,-0.17 -0.65,-0.6 -0.74,-2.4 -2.83,-4.22 -4.78,-4.22 -1.39,0 -2.13,0.94 -2.13,2.27 0,0.91 0.85,4.08 1.81,7.95 0.71,2.68 2.27,3.55 3.43,3.55 0.06,0 1.14,0 1.87,-0.48 -1.11,-0.32 -1.53,-1.3 -1.53,-1.93 0,-0.76 0.59,-1.28 1.39,-1.28 0.81,0 1.95,0.66 1.95,2.13 0,1.95 -2.23,2.53 -3.62,2.53 -1.74,0 -3.14,-1.14 -3.91,-2.47 -0.62,1.44 -2.22,2.47 -4.17,2.47 -3.91,0 -6.14,-4.28 -6.14,-5.33 0,-0.45 0.5,-0.45 0.59,-0.45 0.46,0 0.49,0.14 0.68,0.59 0.85,2.72 3.06,4.22 4.76,4.22 1.16,0 2.09,-0.62 2.09,-2.3 0,-0.7 -0.42,-2.43 -0.73,-3.62 z" /><path
           style="fill:#000000;stroke-width:0"
           inkscape:connector-curvature="0"
           id="path3863"
           d="m 517.17,396.89 0,0.18 0,0.21 -0.01,0.24 0,0.26 -0.02,0.28 -0.01,0.29 -0.03,0.32 -0.03,0.33 -0.05,0.34 -0.05,0.35 -0.07,0.36 -0.07,0.36 -0.1,0.37 -0.11,0.37 -0.12,0.36 -0.14,0.37 -0.17,0.36 -0.18,0.35 -0.2,0.34 -0.23,0.33 -0.25,0.32 -0.27,0.3 -0.15,0.14 -0.16,0.14 -0.16,0.13 -0.16,0.13 -0.18,0.12 -0.18,0.12 -0.19,0.11 -0.2,0.1 -0.2,0.1 -0.22,0.09 -0.22,0.08 -0.23,0.08 -0.23,0.07 -0.25,0.06 -0.25,0.05 -0.27,0.04 -0.27,0.03 -0.28,0.03 -0.29,0.01 -0.3,0.01 v -0.83 c 1.84,0 3.17,-0.94 3.65,-2.69 0.36,-1.27 0.36,-3.34 0.36,-4.81 0,-1.69 0,-3.71 -0.37,-5.21 -0.66,-2.42 -2.64,-2.78 -3.64,-2.78 h 0 c -0.92,0 -3.02,0.32 -3.64,2.83 -0.35,1.35 -0.38,3.13 -0.38,5.16 0,1.84 0,3.56 0.41,4.98 0.62,2.1 2.55,2.52 3.61,2.52 v 0.83 c -6.5,0 -6.5,-6.83 -6.5,-8.63 0,-1.81 0,-8.51 6.5,-8.51 6.5,0 6.5,6.7 6.5,8.51 z" /></g>    </g>
    <g
       transform="matrix(0.35911619,0,0,0.35911619,-45.945369,778.68139)"
       id="g3967">
      <g
         style="font-style:normal;font-variant:normal;font-weight:normal;font-stretch:normal;letter-spacing:normal;word-spacing:normal;text-anchor:start;fill:none;stroke:#000000;stroke-linecap:butt;stroke-linejoin:miter;stroke-miterlimit:10.43299961;stroke-opacity:1;stroke-dasharray:none;stroke-dashoffset:0"
         id="g3969"
         transform="matrix(1.0629921,0,0,-1.0629921,-186.02362,789.27165)"
         xml:space="preserve"
         stroke-miterlimit="10.433"
         font-style="normal"
         font-variant="normal"
         font-weight="normal"
         font-stretch="normal"
         font-size-adjust="none"
         letter-spacing="normal"
         word-spacing="normal"><path
           style="fill:#000000;stroke-width:0"
           inkscape:connector-curvature="0"
           d="m 476.8,436.43 0.02,0.07 0.01,0.06 0.03,0.12 0.03,0.12 0.03,0.11 0.03,0.11 0.03,0.09 0.03,0.1 0.03,0.09 0.03,0.08 0.03,0.08 0.03,0.07 0.03,0.07 0.03,0.06 0.03,0.06 0.03,0.06 0.03,0.05 0.03,0.05 0.03,0.04 0.04,0.04 0.03,0.04 0.04,0.04 0.03,0.03 0.04,0.03 0.04,0.03 0.04,0.02 0.05,0.03 0.04,0.02 0.05,0.02 0.04,0.01 0.05,0.02 0.06,0.01 0.05,0.02 c 0.45,0.11 2.1,0.11 3.14,0.11 5.03,0 7.27,-0.21 7.27,-4.1 0,-0.73 -0.19,-2.68 -0.39,-3.98 -0.05,-0.19 -0.16,-0.8 -0.16,-0.94 0,-0.3 0.16,-0.66 0.59,-0.66 0.57,0 0.66,0.41 0.75,1.16 l 1.35,8.66 c 0.06,0.2 0.11,0.7 0.11,0.86 0,0.54 -0.5,0.54 -1.35,0.54 H 461.6 c -1.21,0 -1.25,-0.06 -1.6,-1 l -2.98,-8.76 c -0.06,-0.11 -0.3,-0.8 -0.3,-0.91 0,-0.3 0.24,-0.55 0.6,-0.55 0.5,0 0.54,0.25 0.84,1.05 2.69,7.72 3.98,8.63 11.36,8.63 h 1.94 c 1.4,0 1.4,-0.21 1.4,-0.6 0,-0.31 -0.15,-0.9 -0.2,-1.04 l -6.67,-26.61 c -0.45,-1.85 -0.61,-2.39 -5.94,-2.39 -1.8,0 -2.09,0 -2.09,-0.96 0,-0.59 0.54,-0.59 0.84,-0.59 1.36,0 2.75,0.09 4.09,0.09 1.4,0 2.85,0.07 4.24,0.07 1.39,0 2.78,-0.07 4.14,-0.07 1.44,0 2.94,-0.09 4.33,-0.09 0.5,0 1.09,0 1.09,1 0,0.55 -0.39,0.55 -1.69,0.55 -1.25,0 -1.89,0 -3.18,0.09 -1.46,0.16 -1.85,0.3 -1.85,1.09 0,0.07 0,0.32 0.19,1.05 z"
           id="path3971" /><path
           style="fill:#000000;stroke-width:0"
           inkscape:connector-curvature="0"
           d="m 517.56,432.07 0.06,0 0.05,0 0.11,0.01 0.12,0 0.06,0 0.06,0.01 0.06,0 0.05,0.01 0.06,0.01 0.06,0.01 0.06,0.01 0.05,0.01 0.06,0.02 0.05,0.02 0.05,0.02 0.05,0.02 0.05,0.03 0.04,0.03 0.04,0.03 0.04,0.04 0.04,0.04 0.02,0.02 0.01,0.02 0.02,0.02 0.02,0.03 0.01,0.02 0.01,0.03 0.02,0.02 0.01,0.03 0.01,0.03 0.01,0.03 0,0.03 0.01,0.03 0.01,0.04 0,0.03 0.01,0.03 0,0.04 0,0.04 0,0.04 c 0,0.86 -0.79,0.86 -1.39,0.86 H 496.8 c -0.57,0 -1.39,0 -1.39,-0.83 0,-0.88 0.79,-0.88 1.39,-0.88 z"
           id="path3973" /><path
           style="fill:#000000;stroke-width:0"
           inkscape:connector-curvature="0"
           d="m 493.35,397.53 -0.03,-0.11 -0.04,-0.12 -0.05,-0.12 -0.04,-0.12 -0.06,-0.13 -0.06,-0.12 -0.06,-0.13 -0.07,-0.13 -0.07,-0.12 -0.07,-0.13 -0.08,-0.13 -0.09,-0.13 -0.09,-0.12 -0.09,-0.13 -0.1,-0.12 -0.1,-0.11 -0.1,-0.12 -0.11,-0.11 -0.12,-0.1 -0.12,-0.11 -0.12,-0.09 -0.12,-0.09 -0.13,-0.08 -0.14,-0.08 -0.13,-0.07 -0.15,-0.06 -0.14,-0.06 -0.15,-0.04 -0.15,-0.04 -0.16,-0.02 -0.16,-0.02 -0.16,-0.01 c -0.11,0 -1.16,0 -1.89,0.49 1.43,0.45 1.53,1.72 1.53,1.92 0,0.77 -0.6,1.3 -1.39,1.3 -0.97,0 -1.99,-0.85 -1.99,-2.14 0,-1.74 1.95,-2.53 3.66,-2.53 1.61,0 3.03,1 3.9,2.46 0.83,-1.84 2.75,-2.46 4.14,-2.46 4.02,0 6.15,4.34 6.15,5.32 0,0.46 -0.46,0.46 -0.57,0.46 -0.48,0 -0.51,-0.17 -0.65,-0.6 -0.74,-2.4 -2.83,-4.22 -4.78,-4.22 -1.4,0 -2.13,0.94 -2.13,2.27 0,0.91 0.84,4.08 1.81,7.95 0.71,2.68 2.27,3.55 3.42,3.55 0.07,0 1.15,0 1.88,-0.48 -1.11,-0.32 -1.53,-1.3 -1.53,-1.93 0,-0.76 0.59,-1.28 1.39,-1.28 0.81,0 1.95,0.66 1.95,2.13 0,1.95 -2.23,2.53 -3.62,2.53 -1.74,0 -3.14,-1.14 -3.91,-2.47 -0.62,1.44 -2.22,2.47 -4.17,2.47 -3.91,0 -6.14,-4.28 -6.14,-5.33 0,-0.45 0.5,-0.45 0.59,-0.45 0.46,0 0.49,0.14 0.67,0.59 0.86,2.72 3.07,4.22 4.77,4.22 1.16,0 2.09,-0.62 2.09,-2.3 0,-0.7 -0.42,-2.43 -0.73,-3.62 z"
           id="path3975" /><path
           style="fill:#000000;stroke-width:0"
           inkscape:connector-curvature="0"
           d="m 522.21,396.89 0,0.18 0,0.21 -0.01,0.24 -0.01,0.26 -0.01,0.28 -0.02,0.29 -0.02,0.32 -0.03,0.33 -0.05,0.34 -0.05,0.35 -0.07,0.36 -0.08,0.36 -0.09,0.37 -0.11,0.37 -0.12,0.36 -0.15,0.37 -0.16,0.36 -0.18,0.35 -0.2,0.34 -0.23,0.33 -0.25,0.32 -0.28,0.3 -0.14,0.14 -0.16,0.14 -0.16,0.13 -0.17,0.13 -0.17,0.12 -0.18,0.12 -0.19,0.11 -0.2,0.1 -0.2,0.1 -0.22,0.09 -0.22,0.08 -0.23,0.08 -0.23,0.07 -0.25,0.06 -0.26,0.05 -0.26,0.04 -0.27,0.03 -0.28,0.03 -0.29,0.01 -0.3,0.01 v -0.83 c 1.84,0 3.17,-0.94 3.65,-2.69 0.36,-1.27 0.36,-3.34 0.36,-4.81 0,-1.69 0,-3.71 -0.37,-5.21 -0.66,-2.42 -2.64,-2.78 -3.64,-2.78 h 0 c -0.93,0 -3.02,0.32 -3.64,2.83 -0.35,1.35 -0.38,3.13 -0.38,5.16 0,1.84 0,3.56 0.41,4.98 0.62,2.1 2.55,2.52 3.61,2.52 v 0.83 c -6.5,0 -6.5,-6.83 -6.5,-8.63 0,-1.81 0,-8.51 6.5,-8.51 6.5,0 6.5,6.7 6.5,8.51 z"
           id="path3977" /></g>    </g>
    <text
       sodipodi:linespacing="125%"
       id="text4035"
       y="929.50507"
       x="159.28572"
       style="font-size:12px;font-style:normal;font-variant:normal;font-weight:normal;font-stretch:normal;line-height:125%;letter-spacing:0px;word-spacing:0px;fill:#000000;fill-opacity:1;stroke:none;font-family:Arial;-inkscape-font-specification:Arial"
       xml:space="preserve"><tspan
         y="929.50507"
         x="159.28572"
         id="tspan4037"
         sodipodi:role="line">masse</tspan></text>
    <g
       id="g4858"
       transform="matrix(0.41819994,0,0,0.41819994,45.647972,853.85537)">
      <g
         word-spacing="normal"
         letter-spacing="normal"
         font-size-adjust="none"
         font-stretch="normal"
         font-weight="normal"
         font-variant="normal"
         font-style="normal"
         stroke-miterlimit="10.433"
         xml:space="preserve"
         transform="matrix(1.0629921,0,0,-1.0629921,-186.02362,789.27165)"
         id="g4860"
         style="font-style:normal;font-variant:normal;font-weight:normal;font-stretch:normal;letter-spacing:normal;word-spacing:normal;text-anchor:start;fill:none;stroke:#000000;stroke-linecap:butt;stroke-linejoin:miter;stroke-miterlimit:10.43299961;stroke-opacity:1;stroke-dasharray:none;stroke-dashoffset:0"><path
           id="path4862"
           d="m 472.16,421.25 0.03,0.13 0.04,0.15 0.04,0.16 0.04,0.18 0.06,0.19 0.06,0.21 0.06,0.22 0.07,0.22 0.08,0.23 0.09,0.24 0.1,0.25 0.1,0.24 0.11,0.25 0.12,0.25 0.13,0.25 0.14,0.25 0.15,0.24 0.15,0.24 0.17,0.23 0.18,0.22 0.18,0.22 0.2,0.2 0.21,0.19 0.22,0.18 0.23,0.16 0.25,0.14 0.12,0.07 0.13,0.06 0.14,0.05 0.13,0.05 0.14,0.05 0.14,0.04 0.15,0.03 0.15,0.03 0.15,0.02 0.16,0.02 0.16,0.01 0.16,0 c 0.25,0 1.44,0 2.48,-0.64 -1.39,-0.25 -2.39,-1.5 -2.39,-2.69 0,-0.79 0.55,-1.75 1.89,-1.75 1.1,0 2.69,0.89 2.69,2.89 0,2.6 -2.94,3.28 -4.63,3.28 -2.89,0 -4.64,-2.64 -5.23,-3.78 -1.25,3.28 -3.94,3.78 -5.37,3.78 -5.19,0 -8.04,-6.42 -8.04,-7.67 0,-0.5 0.5,-0.5 0.61,-0.5 0.39,0 0.55,0.11 0.64,0.55 1.69,5.28 4.99,6.53 6.68,6.53 0.95,0 2.68,-0.44 2.68,-3.33 0,-1.54 -0.84,-4.89 -2.68,-11.86 -0.8,-3.09 -2.54,-5.18 -4.74,-5.18 -0.3,0 -1.44,0 -2.48,0.65 1.25,0.24 2.34,1.28 2.34,2.69 0,1.34 -1.09,1.73 -1.84,1.73 -1.5,0 -2.75,-1.29 -2.75,-2.89 0,-2.28 2.5,-3.28 4.68,-3.28 3.3,0 5.08,3.49 5.24,3.78 0.59,-1.84 2.39,-3.78 5.37,-3.78 5.14,0 7.99,6.42 7.99,7.67 0,0.5 -0.45,0.5 -0.61,0.5 -0.44,0 -0.55,-0.2 -0.64,-0.54 -1.64,-5.33 -5.03,-6.53 -6.63,-6.53 -1.95,0 -2.75,1.59 -2.75,3.29 0,1.1 0.3,2.19 0.86,4.38 z"
           inkscape:connector-curvature="0"
           style="fill:#000000;stroke-width:0" /><path
           id="path4864"
           d="m 501.95,409.87 -0.01,0.71 -0.02,0.68 -0.03,0.66 -0.04,0.64 -0.06,0.62 -0.07,0.6 -0.09,0.57 -0.11,0.56 -0.13,0.55 -0.15,0.53 -0.17,0.51 -0.19,0.5 -0.21,0.49 -0.24,0.48 -0.26,0.47 -0.14,0.23 -0.15,0.23 c -1.08,1.61 -3.23,3 -6.03,3 v -0.98 c 1.89,0 3.7,-1.14 4.33,-3.17 0.56,-1.88 0.59,-4.39 0.59,-7.43 0,-2.57 0,-5.15 -0.45,-7.34 -0.7,-3.17 -3.06,-3.94 -4.47,-3.94 h 0 c -1.59,0 -3.72,0.94 -4.42,3.8 -0.48,2.05 -0.48,4.91 -0.48,7.48 0,2.55 0,5.21 0.51,7.11 0.74,2.75 2.97,3.49 4.39,3.49 v 0.98 c -8.08,0 -8.08,-9.51 -8.08,-12.03 0,-2.5 0,-11.81 8.08,-11.81 8.1,0 8.1,9.31 8.1,11.81 z"
           inkscape:connector-curvature="0"
           style="fill:#000000;stroke-width:0" /></g>    </g>
    <g
       id="g4962"
       transform="matrix(0.56876709,0,0,0.56876709,172.9979,791.30435)"
       inkscape:transform-center-x="7.4999951"
       inkscape:transform-center-y="173.4375">
      <g
         id="g4964"
         transform="matrix(1.0629921,0,0,-1.0629921,-186.02362,789.27165)"
         xml:space="preserve"
         stroke-miterlimit="10.433"
         font-style="normal"
         font-variant="normal"
         font-weight="normal"
         font-stretch="normal"
         font-size-adjust="none"
         letter-spacing="normal"
         word-spacing="normal"
         style="font-style:normal;font-variant:normal;font-weight:normal;font-stretch:normal;letter-spacing:normal;word-spacing:normal;text-anchor:start;fill:none;stroke:#000000;stroke-linecap:butt;stroke-linejoin:miter;stroke-miterlimit:10.43299961;stroke-opacity:1;stroke-dasharray:none;stroke-dashoffset:0"><path
           d="m 472.16,421.25 0.03,0.13 0.04,0.15 0.04,0.16 0.04,0.18 0.06,0.19 0.06,0.21 0.06,0.22 0.07,0.22 0.08,0.23 0.09,0.24 0.1,0.25 0.1,0.24 0.11,0.25 0.12,0.25 0.13,0.25 0.14,0.25 0.15,0.24 0.15,0.24 0.17,0.23 0.18,0.22 0.18,0.22 0.2,0.2 0.21,0.19 0.22,0.18 0.23,0.16 0.25,0.14 0.12,0.07 0.13,0.06 0.14,0.05 0.13,0.05 0.14,0.05 0.14,0.04 0.15,0.03 0.15,0.03 0.15,0.02 0.16,0.02 0.16,0.01 0.16,0 c 0.25,0 1.44,0 2.48,-0.64 -1.39,-0.25 -2.39,-1.5 -2.39,-2.69 0,-0.79 0.55,-1.75 1.89,-1.75 1.1,0 2.69,0.89 2.69,2.89 0,2.6 -2.94,3.28 -4.63,3.28 -2.89,0 -4.64,-2.64 -5.23,-3.78 -1.25,3.28 -3.94,3.78 -5.37,3.78 -5.19,0 -8.04,-6.42 -8.04,-7.67 0,-0.5 0.5,-0.5 0.61,-0.5 0.39,0 0.55,0.11 0.64,0.55 1.69,5.28 4.99,6.53 6.68,6.53 0.95,0 2.68,-0.44 2.68,-3.33 0,-1.54 -0.84,-4.89 -2.68,-11.86 -0.8,-3.09 -2.54,-5.18 -4.74,-5.18 -0.3,0 -1.44,0 -2.48,0.65 1.25,0.24 2.34,1.28 2.34,2.69 0,1.34 -1.09,1.73 -1.84,1.73 -1.5,0 -2.75,-1.29 -2.75,-2.89 0,-2.28 2.5,-3.28 4.68,-3.28 3.3,0 5.08,3.49 5.24,3.78 0.59,-1.84 2.39,-3.78 5.37,-3.78 5.14,0 7.99,6.42 7.99,7.67 0,0.5 -0.45,0.5 -0.61,0.5 -0.44,0 -0.55,-0.2 -0.64,-0.54 -1.64,-5.33 -5.03,-6.53 -6.63,-6.53 -1.95,0 -2.75,1.59 -2.75,3.29 0,1.1 0.3,2.19 0.86,4.38 z"
           id="path4966"
           inkscape:connector-curvature="0"
           style="fill:#000000;stroke-width:0" /></g>    </g>
  </g>
</svg>
